<svg width="112" height="100" viewBox="0 0 112 100" fill="none" xmlns="http://www.w3.org/2000/svg">
<path d="M77.9602 0.331477C84.0554 -0.596051 90.4818 0.430855 95.9476 3.31282C101.943 6.42666 106.846 11.6606 109.496 17.8883C112.312 24.3478 112.643 31.8012 110.49 38.4926C108.668 44.2566 104.991 49.3911 100.188 53.035C95.3182 56.7451 89.2562 58.8983 83.1279 58.9977C77.0989 59.1633 71.07 57.4076 66.068 54.0619C60.6353 50.4511 56.4614 45.0185 54.4407 38.8239C52.0225 31.7018 52.5194 23.6522 55.7989 16.8614C59.8403 8.11609 68.4199 1.72277 77.9602 0.331477ZM79.9809 6.69167C73.9188 7.28794 68.2212 10.468 64.4448 15.2382C61.2647 19.2133 59.4759 24.2485 59.4759 29.3167C59.4096 34.3519 61.0991 39.3539 64.1467 43.329C67.6249 47.9004 72.8588 51.1137 78.5233 52.0743C83.9229 53.0018 89.6206 51.9418 94.2913 49.0598C98.8958 46.2773 102.473 41.8384 104.163 36.737C105.852 31.7349 105.72 26.1366 103.798 21.234C101.811 16.0663 97.9021 11.6937 92.9994 9.143C89.0243 7.05606 84.4198 6.19478 79.9809 6.69167Z" fill="#BDD5FE"/>
<path d="M80.0803 13.6481C81.3059 12.3231 83.5916 12.3562 84.7842 13.7144C85.5792 14.5094 85.6454 15.6688 85.7448 16.7289C87.4674 17.3582 89.5212 17.9876 90.4156 19.7764C91.31 21.5984 90.0843 23.9835 88.0968 24.3147C86.3742 24.8116 85.1154 23.1222 83.4922 22.9897C81.7034 22.7909 79.6496 23.1553 78.5233 24.7122C79.0534 25.2091 79.7159 25.5735 80.4447 25.7391C83.3929 26.501 86.573 26.6004 89.223 28.2567C91.045 29.3167 92.3038 31.238 92.5688 33.325C92.9994 35.9088 91.7738 38.592 89.6868 40.1489C88.5274 41.1096 87.0699 41.6065 85.7117 42.2028C85.6786 43.2628 85.6123 44.4553 84.7842 45.2504C83.5916 46.6085 81.2397 46.6416 80.014 45.2835C79.1527 44.5216 79.1527 43.2959 79.0534 42.2359C77.1652 41.5402 74.7138 40.7783 74.1838 38.5589C73.5876 36.3063 75.8733 34.0206 78.1258 34.6832C79.5171 35.2463 80.8422 36.2401 82.4653 36.0413C83.8235 35.8757 85.8111 35.5776 86.1423 33.9875C82.6641 32.265 78.3246 32.8281 75.1114 30.4099C71.9975 28.323 71.3019 23.6191 73.4551 20.6377C74.747 18.6833 76.9002 17.557 79.0865 16.8614C79.1527 15.7351 79.1527 14.4432 80.0803 13.6481Z" fill="#BDD5FE"/>
<path d="M15.6502 58.5339C23.4017 52.0743 34.6977 50.683 44.0723 54.095C52.3538 56.8445 60.6685 59.5939 68.95 62.3434C71.1694 63.039 73.4882 63.7347 75.1445 65.4241C77.8609 68.0079 78.7553 72.1487 77.5958 75.66C79.2521 75.0638 80.8753 74.2687 82.2997 73.2087C86.308 70.2605 90.3162 67.2791 94.3245 64.3309C95.5501 63.4365 96.7096 62.4428 98.134 61.8465C101.016 60.5546 104.527 60.8196 107.211 62.509C109.827 64.0991 111.616 66.9479 111.848 69.9955C112.146 73.3081 110.656 76.6869 108.006 78.6745C104.66 81.1921 101.281 83.6434 97.9352 86.1279C94.3907 88.8442 90.6806 91.3949 86.6392 93.4156C74.6476 99.577 60.536 101.531 47.3518 98.782C38.1096 96.7613 28.9337 94.575 19.6916 92.5543C19.6253 94.045 20.0228 95.7675 18.9959 97.0263C18.2672 97.987 17.0415 98.3514 15.8821 98.2851C11.6751 98.252 7.46808 98.3182 3.26107 98.252C1.33976 98.3514 -0.150907 96.4632 0.0147227 94.6081C0.0147227 83.8753 -0.0184033 73.1425 0.0147227 62.4428C-0.0846554 60.6539 1.43914 58.9645 3.26107 58.9976C7.03744 58.9314 10.7807 58.9976 14.557 58.9645C14.9877 58.9976 15.3521 58.7989 15.6502 58.5339ZM19.6916 63.7015C19.6916 71.0886 19.6584 78.4757 19.6916 85.8628C28.7681 87.9167 37.8115 89.9705 46.888 92.0574C52.5526 93.3493 58.4159 93.8462 64.2129 93.2831C74.1507 92.3887 83.7242 88.6123 91.7075 82.6496C95.6826 79.7014 99.6909 76.7532 103.666 73.7718C104.461 73.2087 105.124 72.4137 105.256 71.4199C105.554 69.7636 104.329 67.9748 102.639 67.7098C101.612 67.4779 100.552 67.8754 99.7572 68.5048C95.252 71.8505 90.7138 75.1631 86.2086 78.5089C80.4116 82.8484 72.4944 84.2065 65.5711 81.954C58.8134 79.7677 52.0888 77.5151 45.3642 75.2956C44.4367 74.9975 43.5754 74.4344 43.1779 73.54C42.416 72.1155 42.946 70.1611 44.3373 69.2998C45.1986 68.7036 46.358 68.6704 47.3518 69.0017C53.9107 71.1549 60.4366 73.3412 66.9955 75.4944C68.5856 76.1569 70.5731 75.395 71.2357 73.805C72.0638 72.1155 71.0369 69.863 69.215 69.3661C59.6747 66.186 50.1344 63.039 40.561 59.892C33.6045 57.8382 25.323 58.7989 19.6916 63.7015ZM6.6068 65.5566C6.6068 74.3019 6.6068 83.0471 6.6068 91.7593C8.79312 91.7593 10.9463 91.7593 13.1326 91.7593C13.1658 83.014 13.1326 74.3019 13.1326 65.5566C10.9794 65.5235 8.79312 65.5566 6.6068 65.5566Z" fill="#BDD5FE"/>
</svg>
